<svg width="30" height="31" viewBox="0 0 30 31" fill="none" xmlns="http://www.w3.org/2000/svg">
<path d="M10.125 28C11.1605 28 12 27.1605 12 26.125C12 25.0895 11.1605 24.25 10.125 24.25C9.08947 24.25 8.25 25.0895 8.25 26.125C8.25 27.1605 9.08947 28 10.125 28Z" fill="#006DAB"/>
<path d="M19.875 28C20.9105 28 21.75 27.1605 21.75 26.125C21.75 25.0895 20.9105 24.25 19.875 24.25C18.8395 24.25 18 25.0895 18 26.125C18 27.1605 18.8395 28 19.875 28Z" fill="#006DAB"/>
<path d="M24.825 8.79252C24.7551 8.70176 24.6654 8.62821 24.5627 8.5775C24.46 8.5268 24.347 8.50029 24.2325 8.50002H6.90749L6.56999 7.42752C6.53292 7.31236 6.46854 7.20788 6.38234 7.123C6.29615 7.03811 6.1907 6.97533 6.07499 6.94002L2.99999 5.99502C2.90544 5.96596 2.80609 5.95582 2.70762 5.96516C2.60914 5.9745 2.51347 6.00314 2.42607 6.04946C2.24955 6.14299 2.11742 6.30281 2.05874 6.49377C2.00006 6.68473 2.01964 6.89117 2.11318 7.06769C2.20671 7.24421 2.36654 7.37634 2.55749 7.43502L5.24999 8.26002L8.68499 19.1125L7.46249 20.1175L7.36499 20.215C7.06266 20.5651 6.89138 21.0093 6.88043 21.4718C6.86949 21.9342 7.01957 22.386 7.30499 22.75C7.50941 22.9986 7.76917 23.1959 8.06349 23.3262C8.35782 23.4564 8.67853 23.5159 8.99999 23.5H21.5175C21.7164 23.5 21.9072 23.421 22.0478 23.2803C22.1885 23.1397 22.2675 22.9489 22.2675 22.75C22.2675 22.5511 22.1885 22.3603 22.0478 22.2197C21.9072 22.079 21.7164 22 21.5175 22H8.87999C8.79362 21.9971 8.70948 21.9719 8.63568 21.9269C8.56189 21.882 8.50093 21.8187 8.45871 21.7433C8.41649 21.6679 8.39442 21.5829 8.39465 21.4965C8.39487 21.4101 8.41738 21.3252 8.45999 21.25L10.2675 19.75H21.84C22.0113 19.755 22.1792 19.7012 22.3156 19.5975C22.4521 19.4937 22.5489 19.3464 22.59 19.18L24.99 9.43002C25.0128 9.31821 25.0098 9.20267 24.9812 9.09219C24.9526 8.98172 24.8992 8.87923 24.825 8.79252Z" fill="#006DAB"/>
<ellipse cx="22.7667" cy="6.63158" rx="7" ry="6.63158" fill="#FF7A00"/>
<path d="M23.4588 2.72727V10H22.358V3.82812H22.3153L20.5753 4.96449V3.91335L22.3899 2.72727H23.4588Z" fill="white"/>
</svg>
